<svg width="22" height="14" viewBox="0 0 22 14" fill="none" xmlns="http://www.w3.org/2000/svg">
<path d="M7.27454 1.85012C8.41374 1.41256 9.64675 1.1868 10.8935 1.1875C13.6023 1.1875 15.7601 2.22854 17.3652 3.45483C18.9749 4.68429 19.9924 6.07288 20.3966 6.68483C20.4063 6.6978 20.4114 6.71294 20.4113 6.72837C20.4121 6.74524 20.4066 6.76188 20.3957 6.77588C19.9827 7.39231 19.5138 7.97946 18.9932 8.53179C18.9327 8.59186 18.8867 8.66184 18.8581 8.73756C18.8295 8.81328 18.8189 8.89319 18.8268 8.97254C18.8347 9.05189 18.861 9.12905 18.9041 9.19944C18.9473 9.26983 19.0064 9.332 19.0779 9.38226C19.1495 9.43252 19.232 9.46983 19.3206 9.49198C19.4091 9.51413 19.502 9.52066 19.5935 9.51118C19.6851 9.50171 19.7735 9.47642 19.8535 9.43683C19.9335 9.39723 20.0035 9.34414 20.0593 9.28071C20.6292 8.67922 21.1412 8.03847 21.5901 7.36488C21.7184 7.17194 21.786 6.95335 21.7862 6.73086C21.7864 6.50836 21.7191 6.2897 21.591 6.09663C21.1465 5.42371 20.0419 3.914 18.2764 2.56579C16.5072 1.21442 14.0395 0 10.8935 0C9.33979 0 7.94645 0.296083 6.72087 0.762375C6.55487 0.826289 6.42493 0.944371 6.35947 1.0908C6.294 1.23722 6.29833 1.40008 6.37152 1.54376C6.4447 1.68743 6.58078 1.80024 6.75 1.8575C6.91923 1.91476 7.10782 1.91262 7.27454 1.85012ZM17.4624 11.4689C15.7775 12.5717 13.5821 13.4583 10.8935 13.4583C7.74754 13.4583 5.27895 12.2439 3.5107 10.8933C1.7452 9.54433 0.639705 8.03383 0.196038 7.36092C0.0674505 7.16829 -0.000160622 6.94982 2.86541e-07 6.72748C0.000161195 6.50513 0.0680885 6.28674 0.196955 6.09425C1.01723 4.86658 2.04167 3.74951 3.23754 2.77875L1.10079 1.47408C1.02423 1.4301 0.958657 1.37331 0.907961 1.30705C0.857266 1.2408 0.822474 1.16644 0.805646 1.08837C0.788817 1.0103 0.790293 0.930104 0.809987 0.852535C0.829681 0.774965 0.867192 0.701595 0.920301 0.636768C0.973409 0.571941 1.04104 0.516973 1.11918 0.475118C1.19732 0.433262 1.28439 0.40537 1.37524 0.393092C1.46608 0.380814 1.55886 0.384399 1.64807 0.403635C1.73728 0.422871 1.82112 0.457368 1.89462 0.505083L20.6863 11.9843C20.7628 12.0282 20.8284 12.085 20.8791 12.1513C20.9298 12.2175 20.9646 12.2919 20.9814 12.37C20.9983 12.448 20.9968 12.5282 20.9771 12.6058C20.9574 12.6834 20.9199 12.7567 20.8668 12.8216C20.8137 12.8864 20.746 12.9414 20.6679 12.9832C20.5898 13.0251 20.5027 13.053 20.4118 13.0652C20.321 13.0775 20.2282 13.0739 20.139 13.0547C20.0498 13.0355 19.966 13.001 19.8925 12.9532L17.4624 11.4689ZM4.38704 3.48175C2.8012 4.70171 1.7947 6.07288 1.39137 6.68325C1.38063 6.69702 1.37518 6.71336 1.37579 6.72996C1.37457 6.7421 1.37945 6.75661 1.39045 6.7735C1.7947 7.38625 2.8122 8.77404 4.42187 10.0035C6.02604 11.2298 8.18479 12.2708 10.8935 12.2708C13.033 12.2708 14.826 11.6217 16.278 10.7453L13.055 8.77642C12.5145 9.20257 11.8216 9.45632 11.0911 9.49557C10.3607 9.53483 9.63667 9.35723 9.03918 8.99223C8.44168 8.62724 8.00663 8.09679 7.80621 7.4889C7.60579 6.881 7.65204 6.2322 7.93729 5.65013L4.38704 3.48254V3.48175Z" fill="#9C9C9C"/>
</svg>
